<svg xmlns="http://www.w3.org/2000/svg" xmlns:xlink="http://www.w3.org/1999/xlink" width="500" zoomAndPan="magnify" viewBox="0 0 375 374.999991" height="500" preserveAspectRatio="xMidYMid meet" version="1.0"><defs><clipPath id="04b7a2176f"><path d="M 209 192 L 254 192 L 254 260.519531 L 209 260.519531 Z M 209 192 " clip-rule="nonzero"/></clipPath><clipPath id="1e10ee07ec"><path d="M 121 137 L 233 137 L 233 260.519531 L 121 260.519531 Z M 121 137 " clip-rule="nonzero"/></clipPath></defs><g clip-path="url(#04b7a2176f)"><path fill="#ef5a3c" d="M 252.195312 243.621094 L 222.417969 192.050781 L 209.289062 214.820312 L 232.472656 254.992188 C 234.570312 258.625 238.394531 260.691406 242.335938 260.691406 C 244.261719 260.691406 246.21875 260.1875 248.007812 259.152344 C 253.480469 255.996094 255.324219 249.070312 252.195312 243.621094 Z M 252.195312 243.621094 " fill-opacity="1" fill-rule="nonzero"/></g><g clip-path="url(#1e10ee07ec)"><path fill="#ef5a3c" d="M 231.300781 163.726562 L 218.671875 185.597656 L 205.515625 208.367188 L 185.179688 243.59375 C 179.089844 254.152344 167.71875 260.71875 155.539062 260.71875 C 143.164062 260.71875 132.074219 254.320312 125.871094 243.59375 C 119.667969 232.894531 119.667969 220.070312 125.871094 209.34375 L 161.460938 147.746094 C 165.148438 141.347656 171.769531 137.523438 179.144531 137.523438 C 186.519531 137.523438 193.140625 141.347656 196.855469 147.746094 L 198.140625 149.980469 L 201.828125 156.351562 L 188.671875 179.117188 L 179.144531 162.636719 L 145.621094 220.714844 C 142.632812 225.882812 144.617188 230.464844 145.621094 232.195312 C 146.628906 233.929688 149.589844 237.949219 155.566406 237.949219 C 159.644531 237.949219 163.472656 235.742188 165.484375 232.195312 L 192.386719 185.597656 L 205.542969 162.832031 L 211.578125 152.355469 C 214.734375 146.90625 221.691406 145.035156 227.136719 148.191406 C 232.585938 151.320312 234.457031 158.277344 231.300781 163.726562 Z M 231.300781 163.726562 " fill-opacity="1" fill-rule="nonzero"/></g><path fill="#ef5a3c" d="M 225.769531 136.683594 C 231.859375 150.398438 252.167969 141.992188 246.804688 127.96875 C 240.6875 114.277344 220.378906 122.6875 225.769531 136.683594 Z M 225.769531 136.683594 " fill-opacity="1" fill-rule="nonzero"/></svg>